<?xml version="1.0" encoding="UTF-8" standalone="no"?>
<!-- Created with Inkscape (http://www.inkscape.org/) -->

<svg
   width="128"
   height="64"
   viewBox="0 0 33.86667 16.933335"
   version="1.1"
   id="svg1"
   xml:space="preserve"
   inkscape:version="1.4.2 (ebf0e94, 2025-05-08)"
   sodipodi:docname="vassi_text.svg"
   xmlns:inkscape="http://www.inkscape.org/namespaces/inkscape"
   xmlns:sodipodi="http://sodipodi.sourceforge.net/DTD/sodipodi-0.dtd"
   xmlns="http://www.w3.org/2000/svg"
   xmlns:svg="http://www.w3.org/2000/svg"><sodipodi:namedview
     id="namedview1"
     pagecolor="#ffffff"
     bordercolor="#000000"
     borderopacity="0.25"
     inkscape:showpageshadow="2"
     inkscape:pageopacity="0.0"
     inkscape:pagecheckerboard="true"
     inkscape:deskcolor="#d1d1d1"
     inkscape:document-units="mm"
     inkscape:zoom="4"
     inkscape:cx="44.375"
     inkscape:cy="89.375"
     inkscape:window-width="1920"
     inkscape:window-height="1131"
     inkscape:window-x="0"
     inkscape:window-y="0"
     inkscape:window-maximized="1"
     inkscape:current-layer="layer1"
     showguides="true" /><defs
     id="defs1"><inkscape:path-effect
       effect="fillet_chamfer"
       id="path-effect328"
       is_visible="true"
       lpeversion="1"
       nodesatellites_param=""
       radius="0"
       unit="px"
       method="auto"
       mode="F"
       chamfer_steps="1"
       flexible="false"
       use_knot_distance="true"
       apply_no_radius="true"
       apply_with_radius="true"
       only_selected="false"
       hide_knots="false" /><inkscape:path-effect
       effect="fillet_chamfer"
       id="path-effect327"
       is_visible="true"
       lpeversion="1"
       nodesatellites_param="F,0,0,1,0,2.3902949,0,1 @ F,0,0,1,0,4.9699824,0,1 @ F,0,0,1,0,3.6470658,0,1 @ F,0,0,1,0,4.4408158,0,1"
       radius="0"
       unit="px"
       method="auto"
       mode="F"
       chamfer_steps="1"
       flexible="false"
       use_knot_distance="true"
       apply_no_radius="true"
       apply_with_radius="true"
       only_selected="false"
       hide_knots="false" /></defs><g
     inkscape:label="Layer 1"
     inkscape:groupmode="layer"
     id="layer1"><path
       style="font-size:4.43966px;font-family:'Unyil Kucing';-inkscape-font-specification:'Unyil Kucing';letter-spacing:-0.0776913px;word-spacing:0px;fill:#1e9bb7;stroke-width:0.278168;stroke-linejoin:round"
       d="M 7.1894144,6.535458 C 7.04136,6.6027488 6.8933364,6.7238757 6.7722009,6.925753 6.6510656,7.1276301 6.4491974,7.5179253 6.1800289,8.1235553 5.6416921,9.3482748 5.3590643,9.9539055 5.3186887,9.9539055 L 4.9687692,9.1867731 C 4.2285523,7.5044665 3.542173,6.6700425 2.8961667,6.6700425 H 2.8019497 C 2.5731689,6.6969606 2.3981955,6.7777094 2.2636127,6.9257516 2.1290181,7.073794 2.0617508,7.2487546 2.0617508,7.4640895 c 0,0.1480424 0.026979,0.2691685 0.067298,0.3768367 0.040378,0.1076669 0.2018924,0.4306705 0.4575862,0.9420919 0.080758,0.1480424 0.3095438,0.646006 0.6729227,1.5073469 0.6056314,1.413138 0.9690099,2.193728 1.1035926,2.368688 0.121135,0.148059 0.2422405,0.282619 0.3902951,0.376834 0.1615147,0.107682 0.3499193,0.161519 0.5787152,0.161519 0.2422405,0 0.4441268,-0.05384 0.619088,-0.161519 0.1749742,-0.121138 0.3230058,-0.309541 0.471048,-0.565252 C 6.5299713,12.268778 6.8798827,11.420877 7.4720544,9.9404475 8.0642262,8.4600169 8.3737732,7.639051 8.4141487,7.4910084 c 0.013336,-0.026918 0.013336,-0.067291 0.013336,-0.1345868 0,-0.1615002 -0.040377,-0.3230031 -0.1480527,-0.4845043 C 8.1717565,6.7104164 8.0371919,6.6027495 7.8891345,6.5354568 c -0.1480541,-0.067292 -0.269159,-0.09421 -0.3499191,-0.09421 -0.080758,0 -0.2018924,0.026918 -0.3499194,0.094211 z m 6.0630336,1.8438079 c 0.148053,0.080751 0.22878,0.1480424 0.22878,0.2153366 0,0.067291 -0.10767,0.255712 -0.323002,0.5787136 -0.538337,0.7940484 -0.982468,1.3054699 -1.332387,1.5611809 -0.107675,0.0673 -0.188432,0.107681 -0.22878,0.107681 -0.04038,0 -0.09422,-0.01338 -0.161515,-0.05382 -0.09422,-0.05382 -0.188433,-0.14804 -0.2557,-0.28263 -0.0673,-0.134597 -0.09422,-0.282625 -0.09422,-0.430669 v -0.094239 c 0.05384,-0.390292 0.28262,-0.7536696 0.69984,-1.1170476 0.417214,-0.3633782 0.807508,-0.5517966 1.170887,-0.5517966 0.09422,0 0.188432,0.026918 0.296079,0.067291 z M 12.391109,6.3874149 C 11.570143,6.5085411 10.816469,6.9392114 10.143547,7.6525096 9.4706243,8.3658076 9.1072456,9.1194809 9.0399541,9.9404475 v 0.1615015 c 0,0.551797 0.1615147,1.090134 0.4979615,1.588096 0.3364623,0.497963 0.7536734,0.847881 1.2516344,1.022846 0.2557,0.09422 0.524881,0.148058 0.807509,0.148058 0.699838,0 1.413136,-0.444131 2.139894,-1.345847 l 0.403754,-0.484506 0.05384,0.901719 c 0.04038,0.471046 0.0673,0.794046 0.10767,0.955546 0.04038,0.161519 0.10767,0.296079 0.228782,0.417216 0.22878,0.22878 0.49796,0.349918 0.780589,0.349918 0.134594,0 0.282619,-0.04038 0.444129,-0.107681 0.417212,-0.201857 0.632547,-0.52488 0.632547,-0.969006 0,-0.06731 -0.01333,-0.148059 -0.02698,-0.255701 -0.0673,-0.282617 -0.121132,-0.847881 -0.17494,-1.736139 -0.05384,-0.8882555 -0.09422,-1.6150122 -0.09422,-2.166809 0,-0.6056301 -0.01333,-0.982467 -0.05384,-1.1439684 -0.04038,-0.1615039 -0.134597,-0.2960868 -0.28262,-0.4441312 -0.148054,-0.1480422 -0.33646,-0.2153336 -0.565253,-0.2153336 -0.134595,0 -0.24224,0.026918 -0.336463,0.067291 -0.148052,0.067291 -0.2557,0.1345846 -0.309543,0.201878 -0.04038,0.040375 -0.05384,0.067291 -0.08076,0.067291 -0.02698,0 -0.08076,-0.040376 -0.161515,-0.1076669 -0.444124,-0.3230038 -0.942089,-0.4845051 -1.507342,-0.4845051 -0.174974,0 -0.309543,0.01346 -0.403753,0.026918 z m 6.857068,-0.7805902 c -0.471045,0.1749584 -0.861343,0.4575874 -1.197803,0.8344241 -0.484505,0.5383382 -0.726757,1.1574268 -0.726757,1.8438081 0,0.7267566 0.26916,1.3458456 0.79405,1.8572651 0.188403,0.174967 0.376838,0.323004 0.565256,0.417212 0.188431,0.09422 0.511419,0.215334 0.95555,0.363379 0.430669,0.148037 0.740213,0.296085 0.94209,0.444129 0.174967,0.148039 0.26916,0.228781 0.26916,0.255701 0,0.04038 -0.05384,0.09422 -0.174966,0.148039 -0.121141,0.05384 -0.242239,0.08076 -0.390294,0.09422 -0.04038,0.01338 -0.121135,0.01338 -0.215351,0.01338 -0.34992,0 -0.78059,-0.12114 -1.292011,-0.36338 -0.363379,-0.174963 -0.592172,-0.269165 -0.686382,-0.269165 -0.01333,0 -0.01333,0.01338 -0.04038,0.01338 h -0.0673 c -0.22878,0.02698 -0.417211,0.121138 -0.551796,0.282619 -0.134595,0.161518 -0.215352,0.363378 -0.215352,0.605631 0,0.09422 0.01334,0.201858 0.04038,0.309545 0.04038,0.161519 0.161515,0.336462 0.349919,0.538337 0.188433,0.201898 0.390296,0.349922 0.592172,0.444131 0.45759,0.21535 0.96901,0.323003 1.547722,0.323003 0.605632,0 1.117052,-0.107681 1.561181,-0.336461 0.228781,-0.121139 0.444128,-0.269161 0.646004,-0.471045 0.201857,-0.201858 0.36338,-0.403756 0.457591,-0.619092 0.09422,-0.201856 0.148059,-0.403754 0.148059,-0.578711 v -0.174955 c -0.01338,-0.282619 -0.0673,-0.524883 -0.17496,-0.740217 -0.107681,-0.215345 -0.309547,-0.457598 -0.565257,-0.71331 C 21.589901,9.8998275 21.374552,9.7114085 21.172675,9.5902825 20.970812,9.4691562 20.661253,9.3345731 20.244043,9.1865285 19.89412,9.0654023 19.678788,8.9577354 19.584576,8.8635257 19.490366,8.7693157 19.436522,8.6212732 19.436522,8.39248 c 0,-0.1884181 0.05384,-0.3499199 0.161516,-0.4979628 0.121135,-0.1480425 0.22878,-0.228793 0.309543,-0.255712 0.01334,-0.01346 0.04038,-0.01346 0.08076,-0.01346 0.0673,0 0.174975,0.067293 0.323004,0.2153336 0.148054,0.1480424 0.309542,0.2691686 0.511422,0.3768368 0.201857,0.1076669 0.349919,0.1480424 0.471044,0.1480424 0.242242,0 0.43067,-0.094211 0.578714,-0.282628 0.148037,-0.188418 0.228809,-0.4172122 0.228809,-0.6998396 0,-0.228793 -0.05384,-0.4710457 -0.161519,-0.7132979 C 21.859059,6.4948377 21.711005,6.3198779 21.509144,6.1180013 21.307282,5.916124 21.10539,5.7680817 20.916972,5.6738725 20.674732,5.5527461 20.392091,5.4989112 20.082547,5.4854547 h -0.174974 c -0.228781,0 -0.457586,0.040376 -0.659463,0.1211247 z m 6.06302,0 c -0.471043,0.1749602 -0.861341,0.4575874 -1.197801,0.8344241 -0.484504,0.5383382 -0.726757,1.1574268 -0.726757,1.8438081 0,0.7267566 0.269157,1.3458456 0.794048,1.8572651 0.188438,0.174967 0.376838,0.323004 0.565256,0.417212 0.188398,0.09422 0.511421,0.215334 0.95555,0.363379 0.430669,0.148037 0.740215,0.296085 0.942091,0.444129 0.17496,0.148039 0.269161,0.228781 0.269161,0.255701 0,0.04038 -0.05384,0.09422 -0.174959,0.148039 -0.121138,0.05384 -0.242238,0.08076 -0.390296,0.09422 -0.04038,0.01338 -0.121139,0.01338 -0.215321,0.01338 -0.349918,0 -0.780591,-0.12114 -1.292012,-0.36338 -0.36338,-0.174958 -0.592175,-0.269158 -0.686382,-0.269158 -0.01338,0 -0.01338,0.01338 -0.04038,0.01338 h -0.06731 c -0.228811,0.02698 -0.417214,0.121138 -0.551796,0.282618 -0.134599,0.161519 -0.215352,0.363378 -0.215352,0.605631 0,0.09422 0.01338,0.201858 0.04038,0.309546 0.04038,0.161519 0.161518,0.336462 0.34992,0.538336 0.188439,0.201899 0.390294,0.349923 0.592171,0.444132 0.45759,0.21535 0.969009,0.323003 1.547723,0.323003 0.605629,0 1.117051,-0.107682 1.561182,-0.336461 0.22878,-0.12114 0.444127,-0.269161 0.646003,-0.471045 0.201857,-0.201858 0.363379,-0.403756 0.457588,-0.619092 0.09422,-0.201857 0.148039,-0.403754 0.148039,-0.578712 V 11.582225 C 28.608572,11.299606 28.554651,11.057341 28.446995,10.842007 28.339336,10.626909 28.137467,10.384658 27.881757,10.128946 27.652953,9.9000725 27.437635,9.7116535 27.235756,9.5905275 27.033893,9.4694001 26.724334,9.3348178 26.307123,9.1867731 25.957203,9.0656464 25.741869,8.9579803 25.647657,8.8637704 25.553439,8.7695594 25.49962,8.6215179 25.49962,8.3927245 c 0,-0.188418 0.05384,-0.34992 0.161518,-0.4979626 0.121139,-0.1480424 0.228782,-0.228793 0.309545,-0.255712 0.01338,-0.01346 0.04038,-0.01346 0.08076,-0.01346 0.0673,0 0.174958,0.067291 0.323004,0.2153336 0.148058,0.1480424 0.309544,0.2691683 0.511422,0.3768366 0.201898,0.1076669 0.349918,0.1480425 0.471046,0.1480425 0.24224,0 0.430668,-0.094211 0.578711,-0.2826281 0.148059,-0.1884181 0.228779,-0.4172121 0.228779,-0.6998396 0,-0.2287928 -0.05384,-0.4710457 -0.161519,-0.713298 C 27.922149,6.4950769 27.774104,6.3201173 27.572215,6.1182404 27.370359,5.9163625 27.168461,5.7683208 26.98004,5.6741119 26.7378,5.5529872 26.455163,5.4991517 26.145619,5.4856938 h -0.174958 c -0.228779,0 -0.457586,0.040375 -0.659462,0.1211247 z M 30.324461,3.2785122 C 30.095649,3.399637 29.893786,3.5880565 29.745742,3.8303088 29.597704,4.0725612 29.530423,4.34173 29.530423,4.6243576 c 0,0.2422525 0.05384,0.4306706 0.148059,0.565255 0.08074,0.1211248 0.201899,0.228793 0.349919,0.3230026 0.134599,0.080751 0.269156,0.1211248 0.403754,0.1211248 0.269159,0 0.565256,-0.1749602 0.888256,-0.5383383 0.323002,-0.3633786 0.484505,-0.6594643 0.484505,-0.9151749 0,-0.1076669 -0.02699,-0.228793 -0.08076,-0.34992 -0.188439,-0.4441288 -0.511422,-0.6594639 -0.95555,-0.6594639 -0.134599,0 -0.28262,0.040376 -0.444128,0.1076669 z m 0,3.6876161 c -0.228812,0.1345867 -0.417215,0.3902954 -0.578719,0.7671319 -0.161519,0.3768367 -0.255696,0.794049 -0.269156,1.2381779 0,0.1480425 -0.02698,0.5787134 -0.08076,1.3189299 -0.02698,0.403752 -0.04038,0.726755 -0.04038,0.969007 0,0.41721 0.05384,0.753674 0.174958,0.995924 0.161518,0.323003 0.403752,0.524882 0.713298,0.592174 0.09422,0.01339 0.161519,0.02698 0.215321,0.02698 0.201899,0 0.376838,-0.05384 0.551797,-0.174958 0.174958,-0.121139 0.296078,-0.269161 0.363378,-0.444133 0.04038,-0.08076 0.05384,-0.403754 0.05384,-0.982466 V 9.7789485 c 0,-1.0632173 -0.02698,-1.7361402 -0.0673,-2.0187675 C 31.320349,7.4775577 31.226133,7.2487642 31.051189,7.0738045 30.91659,6.9257621 30.782028,6.8584676 30.647436,6.8584676 c -0.09422,0 -0.201857,0.040376 -0.323001,0.1076692 z"
       id="text162"
       aria-label="vassi" /></g></svg>
